<?xml version="1.0" encoding="UTF-8"?>
<svg id="_图层_1" data-name="图层 1" xmlns="http://www.w3.org/2000/svg" viewBox="0 0 193.17 193.17">
  <defs>
    <style>
      .cls-1 {
        fill: #231815;
        fill-rule: evenodd;
        stroke: #231815;
        stroke-miterlimit: 10;
        stroke-width: 2px;
      }
    </style>
  </defs>
  <path class="cls-1" d="M145.77,140.23s-10.14-8.86-21.25-6.18c.5,.51,1,1.03,1.5,1.56,10.22-1.86,19.75,4.62,19.75,4.62Z"/>
  <path class="cls-1" d="M110.75,121.8c.76,.57,1.52,1.16,2.29,1.77,10.13-1.9,20.15,1.72,26.44,7.18-6.49-6.55-16.23-10.49-26.92-9.64-.1,.04-.19,.07-.29,.11-.5,.2-1.01,.39-1.51,.59Z"/>
  <path class="cls-1" d="M85.29,48.77c.32,4.7,1.26,8.66,2.83,12.08-.02,0-.04,0-.05,0,1.62,3.51,3.92,6.42,6.87,8.95,0,0,0,0,0,0,1.24,1.06,2.59,2.05,4.06,2.98,.03,.02,.07,.04,.1,.06,1.12,.71,2.32,1.38,3.58,2.03,4.13,1.47,7.99,3.23,11.69,4.84,4.75,1.62,10.08,3.17,16,4.78,1.92,.52,3.73,1.13,5.45,1.8,0,0-.02-.02-.03-.02,32.2,12.6,29.3,50.35,28.45,57.43,.35-.1,.69-.21,1.03-.32,1.54-6.46,8.55-42.21-21.29-57.52-16.87-8.66-28.97-13.38-27.63-27.13,1.52-15.74,26.45-15.96,39.89-4.27,18.63,16.19,24.56,40.42,22.38,60.2,4.98-27.16-5.46-60.51-37.2-82.13-4.11-2.8-8.57-4.86-13.13-6.24-.05-.02-.11-.03-.16-.05-.66-.2-1.31-.38-1.97-.54-.14-.04-.29-.08-.43-.11-.59-.15-1.18-.28-1.77-.4-.21-.04-.42-.09-.64-.13-.54-.1-1.07-.2-1.6-.28-.27-.04-.55-.09-.82-.12-.48-.07-.96-.13-1.44-.18-.33-.04-.65-.07-.98-.1-.43-.04-.86-.07-1.3-.1-.37-.02-.75-.04-1.12-.06-.38-.01-.77-.03-1.15-.03-.42,0-.84,0-1.26,0-.33,0-.66,0-1,.02-.47,.02-.93,.05-1.4,.08-.28,.02-.55,.04-.83,.06-.52,.05-1.04,.11-1.55,.17-.21,.03-.43,.05-.64,.08-.59,.08-1.17,.18-1.74,.29-.13,.02-.27,.05-.4,.07-.69,.14-1.36,.29-2.03,.46-.02,0-.04,0-.06,.01-10.18,2.63-17.87,9.35-18.74,19.69,.02,0,.03,0,.05,0-.1,1.18-.13,2.4-.05,3.68Z"/>
  <path class="cls-1" d="M132.96,141.4c5.3,3.24,11.06,4.44,16.61,4.49-3.47-1.76-9.89-4.45-16.61-4.49Z"/>
  <path class="cls-1" d="M96.59,1C43.8,1,1,43.8,1,96.59s42.8,95.59,95.59,95.59,95.59-42.8,95.59-95.59S149.38,1,96.59,1Zm-31.15,173.12c-13.18-11.72-16.44-27.34-12.3-39.98-15.64-.83-28.36-7.22-35.76-22.6-11.79-24.5,1.76-57.92,41.22-65.82,1.47-.29,2.93-.52,4.4-.73-.04,6.2,2.9,16.38,3.06,16.35-27.47,5.39-37.9,26.63-29.45,44.2,5.4,11.22,14.78,14.42,26.3,14.07,.71-.6,1.45-1.17,2.22-1.71,10.32-7.15,20.6-8.11,31.09-4.26,3.75-.86,7.55-1.7,11.35-2.43,34.99-6.72,45.94,19.85,49.27,34.14,.05,0,.09-.02,.14-.02-1.15-17.34-7.23-42.25-31.89-49.2-30.37-8.55-49.97-17.25-56.74-35.2-.04,0-1.75-5.98-2.06-7.99-.29-1.89-.54-7.21-.58-8.29,0-.08,0-.15,0-.22,.32-33.31,45.48-45.68,77.53-26.12,44.74,27.3,54.72,81.04,32.93,120.53,.18-.1,.28-.16,.28-.16-25.47,46.93-83.6,59.81-111.02,35.44Zm8.38-99.86c10.08,10.37,26.89,17.05,49.79,23.5,14.09,3.97,21.81,14.27,25.98,25.52-6.82-11.11-18.1-20.84-36.72-21.51-22.25-.8-40.56,13.38-47.99-2.14-4.3-8.99-1.4-20.36,8.94-25.36Z"/>
  <path class="cls-1" d="M95.85,165.37c-4.41-3.38-9.35-12.71-2.85-19.58,8.44-8.92,20.09-1.89,26.94,3.01,9.4,6.72,28.44,8.32,38.48,2.95-1.2,.34-3.12,.78-5.69,.96,0-.02-.01-.04-.02-.07-6.34,.62-17.03-.24-29.93-8.76,0,0,0,0,0,0-.78-.51-1.56-1.05-2.35-1.62-1.08-.78-2.18-1.55-3.3-2.32-7.62-5.28-15.94-10.25-23.83-12.26-.14-.04-.28-.07-.41-.1-.61-.15-1.21-.28-1.81-.39-.05-.01-.11-.02-.16-.03-.6-.11-1.19-.19-1.78-.26-.08,0-.16-.02-.23-.03-.61-.06-1.21-.1-1.81-.12-.08,0-.17,0-.25,0-3.87,.02-7.64,.92-10.85,3.02-.35,.23-.7,.48-1.05,.74-.43,.33-.85,.68-1.25,1.03-.08,.07-.16,.14-.24,.21-.39,.35-.77,.71-1.13,1.07-8.09,8.24-8.23,20.59,2.21,32.51,11.93,13.61,42.69,14.71,65.68,2.14-18.12,7.51-35.3,4.84-44.37-2.11Z"/>
</svg>